<?xml version="1.0" encoding="utf-8"?>
<!-- Generator: Adobe Illustrator 19.0.0, SVG Export Plug-In . SVG Version: 6.00 Build 0)  -->
<svg version="1.1" id="Layer_1" xmlns="http://www.w3.org/2000/svg" xmlns:xlink="http://www.w3.org/1999/xlink" x="0px" y="0px"
	 viewBox="0 0 500 500" style="enable-background:new 0 0 500 500;" xml:space="preserve">
<style type="text/css">
	.st0{fill:#008ACD;}
	.st1{fill:#565C60;}
</style>
<g id="XMLID_1_">
	<polygon id="XMLID_3_" class="st0" points="155.8,230.4 134.6,197.3 67.5,302.2 91.4,302.2 134.6,234.6 155.8,267.9 176.9,234.6 
		219.9,302.2 243.8,302.2 176.9,197.2 	"/>
	<polygon id="XMLID_4_" class="st1" points="243.8,302.2 198.1,230.5 186.2,249.2 176.9,263.8 167.7,249.2 155.8,230.5 143.9,249.2 
		110.1,302.2 134,302.2 155.8,267.9 177,301.3 198.2,268 219.9,302.2 	"/>
	<path id="XMLID_24_" class="st1" d="M430.8,281.9c-2.4-2.3-5.9-3.7-9.9-3.7c-6.5,0-11.7,5.1-11.7,11.4c0,6.3,5.3,11.5,11.7,11.5
		c4.2,0,7.6-1.3,9.9-3.6V281.9z M432.5,277v25.5h-1.7v-3.1c-2.5,2-6,3.3-10.1,3.3c-7.4,0-13.3-5.9-13.3-13.1
		c0-7.2,5.9-13.1,13.3-13.1c3.9,0,7.7,1.3,10.1,3.4V277H432.5z M397,278.6v15.8c0,4.8,2.3,6.7,5.6,6.7c2.1,0,3.4-0.2,4.2-0.5v1.6
		c-0.9,0.2-2.4,0.6-4.5,0.6c-3.9,0-7.1-2.5-7.1-7.4v-16.8h-4.7V277h4.7v-10.2h1.8V277h9.9v1.6H397z M378.6,278.6v15.8
		c0,4.8,2.3,6.7,5.6,6.7c2.1,0,3.4-0.2,4.2-0.5v1.6c-0.9,0.2-2.4,0.6-4.5,0.6c-3.9,0-7.1-2.5-7.1-7.4v-16.8h-4.7V277h4.7v-10.2h1.8
		V277h9.9v1.6H378.6z M347.9,288.9h21.8c-0.3-6.3-4.3-10.7-10.6-10.7C352.7,278.2,348.2,282.9,347.9,288.9z M371.4,290.4h-23.5
		c0.4,6.3,5.4,10.7,11.3,10.7c3.8,0,7.5-1.4,9.8-4.3l1.3,1c-2.4,3-6.4,4.9-11.2,4.9c-7.7,0-13-5.9-13-13.1c0-7.2,5.3-13.1,13-13.1
		c7.6,0,12.3,5.5,12.3,13.3V290.4z M339.7,277h1.8v25.5h-1.8V277z M342,270.3c0,0.8-0.6,1.4-1.4,1.4c-0.8,0-1.4-0.6-1.4-1.4
		c0-0.8,0.6-1.4,1.4-1.4C341.3,268.9,342,269.5,342,270.3z M322.7,283.2c1.5-3.9,4.5-6.5,8.7-6.6c1.4,0,2.9,0.3,4.4,1.1l-0.4,1.7
		c-1.5-0.7-2.9-0.9-4.1-0.9c-5.1,0-8.5,4.7-8.5,10.8v13.4H321V277h1.7V283.2z M314,281.9c-2.4-2.3-5.9-3.7-9.9-3.7
		c-6.5,0-11.7,5.1-11.7,11.4c0,6.3,5.3,11.5,11.7,11.5c4.2,0,7.6-1.3,9.9-3.6V281.9z M315.6,277v25.5H314v-3.1
		c-2.5,2-6,3.3-10.1,3.3c-7.4,0-13.3-5.9-13.3-13.1c0-7.2,5.9-13.1,13.3-13.1c3.9,0,7.7,1.3,10.1,3.4V277H315.6z M287.4,269.2v33.4
		h-1.8v-29.3l-14.4,23.7l-14.4-23.7v29.3H255v-33.4h1.2l15,24.5l15-24.5H287.4z M394.6,247.4v14.4h-6.6v-14.4c0-4-1.9-5.9-5.6-5.9
		c-2.3,0-4.2,0.8-5.7,2v18.2h-6.6V236h6.6v1.6c1.9-1.3,4.3-2.1,6.9-2.1C391.2,235.6,394.6,239.1,394.6,247.4z M360.3,236h6.6v25.7
		h-6.6V236z M350.6,241.5v9.1c0,4.6,0.8,5.9,4.1,5.9c1.1,0,2.1-0.1,3-0.2v4.9c-0.3,0.1-2.3,0.9-6,0.9c-4.3,0-7.8-2.7-7.8-8.1v-12.6
		h-3.6V236h3.6v-10h6.6v10h7.2v5.4H350.6z M328.3,239.6c1.8-2.4,4.5-4,8.1-4.1c0.5,0,1.1,0.1,1.6,0.3v7.2c0,0-1.8-0.4-3.2-0.4
		c-4.7,0-6.5,3.4-6.5,6.7v12.4h-6.6V236h6.6V239.6z M312,243.7c-1.6-1.4-3.9-2.2-6.3-2.2c-4.7,0-7.6,3.5-7.6,7.3
		c0,3.9,3,7.4,7.6,7.4c2.5,0,4.7-0.8,6.3-2.2V243.7z M318.6,236v25.7H312v-1.9c-2.1,1.4-4.7,2.3-7.5,2.3c-8.1,0-12.8-6.5-12.8-13.3
		c0-6.9,4.7-13.3,12.8-13.3c2.7,0,5.4,0.9,7.5,2.1V236H318.6z M289.2,228.4v33.4h-6.8v-18.5L272,257.8l-10.4-14.5v18.5h-6.8v-33.4
		h3.3l13.8,19.1l13.8-19.1H289.2z"/>
	<polygon id="XMLID_25_" class="st0" points="363.6,222.9 360.3,228.1 363.6,233.2 366.9,228.1 	"/>
</g>
</svg>
